# xmcd
#
# Track frame offsets:
#	150
#	16584
#	33459
#	53372
#	66743
#	84422
#	100815
#	119740
#	133922
#	150098
#
# Disc length: 2212 seconds
#
# Revision: 0
# Processed by: cddbd v1.5.2PL0 Copyright (c) Steve Scherf et al.
# Submitted via: audiograbber 1.83.01
#
DISCID=7908a20a
DTITLE=Kris Kristofferson - The Complete Monument and Columbia Albums Collection 
DTITLE=(CD 08) - Surreal Thing [remastered 2016]
DYEAR=1976
DGENRE=Singer/Songwriter
TTITLE0=You Show Me Yours (And I'll Show You Mine)
TTITLE1=Killing Time
TTITLE2=The Prisoner
TTITLE3=Eddie The Eunuch
TTITLE4=It's Never Gonna Be The Same Again
TTITLE5=I Got A Life Of My Own
TTITLE6=The Stranger I Love
TTITLE7=The Golden Idol
TTITLE8=Bad Love Story
TTITLE9=If You Don't Like Hank Williams
EXTD=
EXTT0=
EXTT1=
EXTT2=
EXTT3=
EXTT4=
EXTT5=
EXTT6=
EXTT7=
EXTT8=
EXTT9=
PLAYORDER=
